<?xml version="1.0" encoding="UTF-8"?>
<svg id="Camada_2" data-name="Camada 2" xmlns="http://www.w3.org/2000/svg" viewBox="0 0 256.84 56.92">
  <defs>
    <style>
		.cls-1 {
		letter-spacing: 0em;
		}

		.cls-2 {
		font-family: "myriad-pro", sans-serif; 
		font-size: 14.55px;
		}

		.cls-2, .cls-3 {
		fill: #503092;
		}

		.cls-4 {
		letter-spacing: 0em;
		}

		.cls-5 {
		letter-spacing: 0em;
		}

		.cls-6 {
		letter-spacing: 0em;
		}

		.cls-7 {
		letter-spacing: .02em;
		}

		.cls-8 {
		letter-spacing: 0em;
		}

		.cls-9 {
		fill: none;
		stroke: #503092;
		stroke-miterlimit: 10;
		}
	</style>
  </defs>
  <g id="Camada_1-2" data-name="Camada 1">
    <g>
      <path class="cls-3" d="m65.19,0c-.11.79-.21,1.56-.32,2.32-.19,1.3-.36,2.6-.57,3.9-.23,1.46-.3,2.94-.73,4.37-.85,2.8-3.55,4.96-6.52,5.27-.41.04-.83.06-1.24.06-12.15,0-24.3,0-36.45,0-.45,0-.44,0-.38-.42.18-1.46.33-2.92.54-4.37.21-1.46.19-2.97.68-4.37,1.06-2.99,3.23-4.76,6.48-5.26.35-.05.7-.06,1.06-.06,9.43,0,18.86.02,28.29-.01,2.55,0,5.1-.16,7.58-.83.27-.07.53-.16.79-.25.26-.1.5-.22.79-.34Z"/>
      <g>
        <path class="cls-3" d="m46.23,20.1c-.11.79-.21,1.56-.32,2.32-.19,1.3-.36,2.6-.57,3.9-.23,1.46-.3,2.94-.73,4.37-.85,2.8-3.55,4.96-6.52,5.27-.41.04-.83.06-1.24.06-12.15,0-24.3,0-36.45,0-.45,0-.44,0-.38-.42.18-1.46.33-2.92.54-4.37.21-1.46.19-2.97.68-4.37,1.06-2.99,3.23-4.76,6.48-5.26.35-.05.7-.06,1.06-.06,9.43,0,18.86.02,28.29-.01,2.55,0,5.1-.16,7.58-.83.27-.07.53-.16.79-.25.26-.1.5-.22.79-.34Z"/>
        <path class="cls-3" d="m29.7,30.96l-14.88,1.42c-.68,4.26-1.35,8.53-2.03,12.79-.06.41-.11.82-.14,1.23-.16,2.98,1.55,5.99,4.18,7.26,1.34.65,2.8.94,4.2,1.4,1.25.41,2.51.78,3.76,1.17.74.23,1.48.45,2.24.68-.08-.3-.16-.56-.21-.83-.06-.27-.1-.54-.13-.82-.27-2.55-.02-5.1.37-7.62.87-5.57,1.75-11.13,2.64-16.7Z"/>
      </g>
    </g>
    <g>
      <path class="cls-3" d="m73.07,16.12c0-2.61.72-4.47,2.15-5.59,1.43-1.12,3.15-1.68,5.15-1.68,5.55,0,9.87.21,12.95.63v6.44h-10.74c-.63,0-1.1.16-1.4.49-.3.33-.45.72-.45,1.17v3.32l10.62.39v6.08l-10.62.39v10.43h-7.66v-22.08Z"/>
      <path class="cls-3" d="m96.88,8.85h7.66v29.34h-7.66V8.85Z"/>
      <path class="cls-3" d="m109.28,31.44v-15.32c0-2.61.72-4.47,2.15-5.59,1.43-1.12,3.15-1.68,5.15-1.68,4.74,0,9.06.2,12.95.59v6.48h-10.58c-1.34,0-2.01.58-2.01,1.74v2.45l10.62.39v6.08l-10.62.39v2.21c0,.68.15,1.2.45,1.54.3.34.72.51,1.24.51h10.9v6.48c-1.63.24-3.6.41-5.9.53-2.3.12-4.51.18-6.62.18-5.16,0-7.74-2.33-7.74-6.99Z"/>
      <path class="cls-3" d="m133.53,8.85h12.16c5.92,0,8.89,2.61,8.89,7.82,0,1.71-.34,3.1-1.01,4.17s-1.68,1.77-3.02,2.11c1.47.37,2.67,1.16,3.57,2.39.91,1.22,1.36,2.82,1.36,4.8,0,2.84-.76,4.9-2.27,6.16-1.51,1.26-3.82,1.9-6.93,1.9h-12.76V8.85Zm12.08,11.53c.55,0,.97-.22,1.26-.65.29-.43.43-.99.43-1.68,0-.82-.16-1.41-.49-1.78-.33-.37-.73-.55-1.2-.55h-4.42v4.66h4.42Zm.43,10.94c.68,0,1.22-.23,1.6-.69.38-.46.57-1.09.57-1.88s-.19-1.41-.57-1.88c-.38-.46-.91-.69-1.6-.69h-4.86v5.13h4.86Z"/>
    </g>
    <g>
      <path class="cls-9" d="m166.41,15.86h-7.39v-6.87h22.43v6.87h-7.39v22.47h-7.66V15.86Z"/>
      <path class="cls-9" d="m184.26,31.58v-15.32c0-2.61.72-4.47,2.15-5.59,1.43-1.12,3.15-1.68,5.15-1.68,4.74,0,9.06.2,12.95.59v6.48h-10.58c-1.34,0-2.01.58-2.01,1.74v2.45l10.62.39v6.08l-10.62.39v2.21c0,.68.15,1.2.45,1.54.3.34.72.51,1.24.51h10.9v6.48c-1.63.24-3.6.41-5.9.53-2.3.12-4.51.18-6.62.18-5.16,0-7.74-2.33-7.74-6.99Z"/>
      <path class="cls-9" d="m212.6,37.39c-1.54-.79-2.73-2.28-3.57-4.46-.84-2.19-1.26-5.3-1.26-9.36s.44-6.97,1.32-9.14c.88-2.17,2.1-3.67,3.65-4.48,1.55-.82,3.49-1.22,5.81-1.22,2.18,0,4.09.16,5.71.47s2.93.68,3.93,1.11v5.96c-.87-.18-2-.34-3.4-.47-1.4-.13-2.91-.2-4.54-.2-1.29,0-2.26.19-2.92.57-.66.38-1.14,1.14-1.44,2.27-.3,1.13-.45,2.87-.45,5.21s.12,3.91.38,5.02c.25,1.11.72,1.89,1.4,2.35.68.46,1.72.69,3.12.69,3.45,0,6.07-.12,7.86-.36v5.96c-2.11.84-5.32,1.26-9.64,1.26-2.42,0-4.4-.39-5.94-1.18Z"/>
      <path class="cls-9" d="m232.17,8.99h7.66v11.3h8.69v-11.3h7.66v29.34h-7.66v-11.18h-8.69v11.18h-7.66V8.99Z"/>
    </g>
    <text class="cls-2" transform="translate(71.8 53.19)"><tspan class="cls-1" x="0" y="0">E</tspan><tspan class="cls-6" x="7.14" y="0">ducação </tspan><tspan class="cls-4" x="61.83" y="0">c</tspan><tspan class="cls-6" x="68.3" y="0">one</tspan><tspan class="cls-7" x="91.78" y="0">c</tspan><tspan class="cls-8" x="98.53" y="0">tada ao futu</tspan><tspan class="cls-5" x="172.36" y="0">r</tspan><tspan class="cls-6" x="177.01" y="0">o</tspan></text>
  </g>
</svg>